<mxfile host="65bd71144e">
    <diagram id="HqBGhrfILNDv3vDqCCEF" name="Page-1">
        <mxGraphModel dx="1585" dy="904" grid="1" gridSize="10" guides="1" tooltips="1" connect="1" arrows="1" fold="1" page="1" pageScale="1" pageWidth="850" pageHeight="1100" math="0" shadow="0">
            <root>
                <mxCell id="0"/>
                <mxCell id="1" parent="0"/>
                <mxCell id="2" value="UPF&lt;br&gt;&lt;div style=&quot;color: rgb(248, 248, 242); font-family: &amp;quot;Droid Sans Mono&amp;quot;, &amp;quot;monospace&amp;quot;, monospace; font-size: 14px; line-height: 19px;&quot;&gt;&lt;span style=&quot;color: rgb(189, 147, 249);&quot;&gt;192.168.70.134&lt;/span&gt;&lt;/div&gt;" style="rounded=0;whiteSpace=wrap;html=1;" parent="1" vertex="1">
                    <mxGeometry x="1000" y="300" width="170" height="60" as="geometry"/>
                </mxCell>
                <mxCell id="3" value="AMF&lt;br&gt;&lt;div style=&quot;color: rgb(248, 248, 242); font-family: &amp;quot;Droid Sans Mono&amp;quot;, &amp;quot;monospace&amp;quot;, monospace; font-size: 14px; line-height: 19px;&quot;&gt;&lt;span style=&quot;color: rgb(189, 147, 249);&quot;&gt;192.168.70.132&lt;/span&gt;&lt;/div&gt;" style="rounded=0;whiteSpace=wrap;html=1;" parent="1" vertex="1">
                    <mxGeometry x="710" y="140" width="170" height="60" as="geometry"/>
                </mxCell>
                <mxCell id="4" value="Internet" style="aspect=fixed;perimeter=ellipsePerimeter;html=1;align=center;shadow=0;dashed=0;spacingTop=3;image;image=img/lib/active_directory/internet_cloud.svg;labelBackgroundColor=none;" parent="1" vertex="1">
                    <mxGeometry x="1420" y="290" width="126.99" height="80" as="geometry"/>
                </mxCell>
                <mxCell id="5" value="" style="endArrow=classic;startArrow=classic;html=1;entryX=0;entryY=0.5;entryDx=0;entryDy=0;exitX=1;exitY=0.5;exitDx=0;exitDy=0;" parent="1" source="2" target="4" edge="1">
                    <mxGeometry width="50" height="50" relative="1" as="geometry">
                        <mxPoint x="190" y="460" as="sourcePoint"/>
                        <mxPoint x="240" y="410" as="targetPoint"/>
                    </mxGeometry>
                </mxCell>
                <mxCell id="6" value="&lt;font color=&quot;#080808&quot;&gt;192.168.70.129&lt;/font&gt;" style="fontColor=#0066CC;verticalAlign=top;verticalLabelPosition=bottom;labelPosition=center;align=center;html=1;outlineConnect=0;fillColor=#CCCCCC;strokeColor=#6881B3;gradientColor=none;gradientDirection=north;strokeWidth=2;shape=mxgraph.networks.radio_tower;labelBackgroundColor=none;" parent="1" vertex="1">
                    <mxGeometry x="500" y="260" width="55" height="100" as="geometry"/>
                </mxCell>
                <mxCell id="7" value="" style="html=1;verticalLabelPosition=bottom;labelBackgroundColor=#ffffff;verticalAlign=top;shadow=0;dashed=0;strokeWidth=1;shape=mxgraph.ios7.misc.iphone;strokeColor=#c0c0c0;" parent="1" vertex="1">
                    <mxGeometry x="10" y="310" width="50" height="105" as="geometry"/>
                </mxCell>
                <mxCell id="8" value="" style="endArrow=classic;startArrow=classic;html=1;fontColor=#FFFFFF;entryX=0.33;entryY=0.5;entryDx=0;entryDy=0;entryPerimeter=0;exitX=0.95;exitY=0.007;exitDx=0;exitDy=0;exitPerimeter=0;" parent="1" source="7" target="6" edge="1">
                    <mxGeometry width="50" height="50" relative="1" as="geometry">
                        <mxPoint x="80" y="330" as="sourcePoint"/>
                        <mxPoint x="130" y="280" as="targetPoint"/>
                    </mxGeometry>
                </mxCell>
                <mxCell id="9" value="" style="endArrow=classic;startArrow=classic;html=1;fontColor=#FFFFFF;exitX=0.67;exitY=0.5;exitDx=0;exitDy=0;exitPerimeter=0;entryX=0;entryY=0.5;entryDx=0;entryDy=0;" parent="1" source="6" target="3" edge="1">
                    <mxGeometry width="50" height="50" relative="1" as="geometry">
                        <mxPoint x="260" y="340" as="sourcePoint"/>
                        <mxPoint x="310" y="290" as="targetPoint"/>
                    </mxGeometry>
                </mxCell>
                <mxCell id="10" value="" style="endArrow=classic;startArrow=classic;html=1;fontColor=#FFFFFF;exitX=0.994;exitY=0.23;exitDx=0;exitDy=0;exitPerimeter=0;entryX=0.221;entryY=0.759;entryDx=0;entryDy=0;entryPerimeter=0;" parent="1" source="7" target="6" edge="1">
                    <mxGeometry width="50" height="50" relative="1" as="geometry">
                        <mxPoint x="140" y="550" as="sourcePoint"/>
                        <mxPoint x="190" y="500" as="targetPoint"/>
                    </mxGeometry>
                </mxCell>
                <mxCell id="11" value="" style="endArrow=classic;startArrow=classic;html=1;fontColor=#FFFFFF;exitX=0.732;exitY=0.679;exitDx=0;exitDy=0;exitPerimeter=0;entryX=0;entryY=0.5;entryDx=0;entryDy=0;" parent="1" source="6" target="2" edge="1">
                    <mxGeometry width="50" height="50" relative="1" as="geometry">
                        <mxPoint x="230" y="470" as="sourcePoint"/>
                        <mxPoint x="280" y="420" as="targetPoint"/>
                    </mxGeometry>
                </mxCell>
                <mxCell id="32" value="IP: &lt;br&gt;src: 10.0.0.5&lt;br&gt;dst: 8.8.8.8" style="rounded=0;whiteSpace=wrap;html=1;labelBackgroundColor=none;fontColor=#030303;container=0;" parent="1" vertex="1">
                    <mxGeometry x="920" y="470" width="160" height="50" as="geometry"/>
                </mxCell>
                <mxCell id="33" value="ICMP" style="rounded=0;whiteSpace=wrap;html=1;labelBackgroundColor=none;fontColor=#030303;container=0;" parent="1" vertex="1">
                    <mxGeometry x="920" y="440" width="160" height="30" as="geometry"/>
                </mxCell>
                <mxCell id="34" value="GPRS Tunneling" style="rounded=0;whiteSpace=wrap;html=1;labelBackgroundColor=none;fontColor=#030303;container=0;" parent="1" vertex="1">
                    <mxGeometry x="920" y="520" width="160" height="30" as="geometry"/>
                </mxCell>
                <mxCell id="35" value="UDP&lt;br&gt;src: 2152&lt;br&gt;dst: 2152" style="rounded=0;whiteSpace=wrap;html=1;labelBackgroundColor=none;fontColor=#030303;container=0;" parent="1" vertex="1">
                    <mxGeometry x="920" y="550" width="160" height="50" as="geometry"/>
                </mxCell>
                <mxCell id="36" value="IP&lt;br&gt;src: 192.168.70.129&lt;br&gt;dst: 192.168.70.134" style="rounded=0;whiteSpace=wrap;html=1;labelBackgroundColor=none;fontColor=#030303;container=0;" parent="1" vertex="1">
                    <mxGeometry x="920" y="600" width="160" height="50" as="geometry"/>
                </mxCell>
                <mxCell id="37" value="Ethernet" style="rounded=0;whiteSpace=wrap;html=1;labelBackgroundColor=none;fontColor=#030303;container=0;" parent="1" vertex="1">
                    <mxGeometry x="920" y="650" width="160" height="30" as="geometry"/>
                </mxCell>
                <mxCell id="38" value="" style="group;fontColor=#030303;" parent="1" vertex="1" connectable="0">
                    <mxGeometry x="560" y="440" width="160" height="240" as="geometry"/>
                </mxCell>
                <mxCell id="15" value="IP&lt;br&gt;src: 10.0.0.5&lt;br&gt;dst: 8.8.8.8" style="rounded=0;whiteSpace=wrap;html=1;labelBackgroundColor=none;fontColor=#030303;container=0;" parent="38" vertex="1">
                    <mxGeometry y="30" width="160" height="50" as="geometry"/>
                </mxCell>
                <mxCell id="16" value="ICMP" style="rounded=0;whiteSpace=wrap;html=1;labelBackgroundColor=none;fontColor=#030303;container=0;" parent="38" vertex="1">
                    <mxGeometry width="160" height="30" as="geometry"/>
                </mxCell>
                <mxCell id="17" value="GPRS Tunneling" style="rounded=0;whiteSpace=wrap;html=1;labelBackgroundColor=none;fontColor=#030303;container=0;" parent="38" vertex="1">
                    <mxGeometry y="80" width="160" height="30" as="geometry"/>
                </mxCell>
                <mxCell id="18" value="UDP&lt;br&gt;src: 2152&lt;br&gt;dst: 2152" style="rounded=0;whiteSpace=wrap;html=1;labelBackgroundColor=none;fontColor=#030303;container=0;" parent="38" vertex="1">
                    <mxGeometry y="110" width="160" height="50" as="geometry"/>
                </mxCell>
                <mxCell id="19" value="IP&lt;br&gt;src: 192.168.70.129&lt;br&gt;dst: 192.168.70.134" style="rounded=0;whiteSpace=wrap;html=1;labelBackgroundColor=none;fontColor=#030303;container=0;" parent="38" vertex="1">
                    <mxGeometry y="160" width="160" height="50" as="geometry"/>
                </mxCell>
                <mxCell id="20" value="Ethernet" style="rounded=0;whiteSpace=wrap;html=1;labelBackgroundColor=none;fontColor=#030303;container=0;" parent="38" vertex="1">
                    <mxGeometry y="210" width="160" height="30" as="geometry"/>
                </mxCell>
                <mxCell id="40" value="" style="group;fontColor=#030303;" parent="1" vertex="1" connectable="0">
                    <mxGeometry y="440" width="120" height="80" as="geometry"/>
                </mxCell>
                <mxCell id="13" value="ICMP" style="rounded=0;whiteSpace=wrap;html=1;labelBackgroundColor=none;fontColor=#030303;" parent="40" vertex="1">
                    <mxGeometry width="120" height="30" as="geometry"/>
                </mxCell>
                <mxCell id="39" value="IP&lt;br&gt;src: 10.0.0.5&lt;br&gt;dst: 8.8.8.8" style="rounded=0;whiteSpace=wrap;html=1;labelBackgroundColor=none;fontColor=#030303;container=0;" parent="40" vertex="1">
                    <mxGeometry y="30" width="120" height="50" as="geometry"/>
                </mxCell>
                <mxCell id="41" value="" style="endArrow=none;html=1;fontColor=#030303;entryX=0;entryY=0.5;entryDx=0;entryDy=0;exitX=1;exitY=0.5;exitDx=0;exitDy=0;" parent="1" source="13" target="16" edge="1">
                    <mxGeometry width="50" height="50" relative="1" as="geometry">
                        <mxPoint x="660" y="570" as="sourcePoint"/>
                        <mxPoint x="710" y="520" as="targetPoint"/>
                    </mxGeometry>
                </mxCell>
                <mxCell id="43" style="edgeStyle=none;html=1;exitX=1;exitY=0.5;exitDx=0;exitDy=0;entryX=0;entryY=0.5;entryDx=0;entryDy=0;fontColor=#030303;endArrow=none;endFill=0;" parent="1" source="39" target="15" edge="1">
                    <mxGeometry relative="1" as="geometry"/>
                </mxCell>
                <mxCell id="44" value="" style="endArrow=none;html=1;fontColor=#030303;exitX=1;exitY=0.5;exitDx=0;exitDy=0;entryX=0;entryY=0.5;entryDx=0;entryDy=0;" parent="1" source="16" target="33" edge="1">
                    <mxGeometry width="50" height="50" relative="1" as="geometry">
                        <mxPoint x="770" y="440" as="sourcePoint"/>
                        <mxPoint x="820" y="390" as="targetPoint"/>
                    </mxGeometry>
                </mxCell>
                <mxCell id="45" value="" style="endArrow=none;html=1;fontColor=#030303;entryX=1;entryY=0.5;entryDx=0;entryDy=0;exitX=0;exitY=0.5;exitDx=0;exitDy=0;" parent="1" source="32" target="15" edge="1">
                    <mxGeometry width="50" height="50" relative="1" as="geometry">
                        <mxPoint x="270" y="620" as="sourcePoint"/>
                        <mxPoint x="320" y="570" as="targetPoint"/>
                    </mxGeometry>
                </mxCell>
                <mxCell id="48" value="" style="endArrow=none;html=1;fontColor=#030303;entryX=1;entryY=0.5;entryDx=0;entryDy=0;exitX=0;exitY=0.5;exitDx=0;exitDy=0;" parent="1" source="47" target="33" edge="1">
                    <mxGeometry width="50" height="50" relative="1" as="geometry">
                        <mxPoint x="1080" y="660" as="sourcePoint"/>
                        <mxPoint x="1130" y="610" as="targetPoint"/>
                    </mxGeometry>
                </mxCell>
                <mxCell id="49" value="" style="endArrow=none;html=1;fontColor=#030303;entryX=1;entryY=0.5;entryDx=0;entryDy=0;exitX=0;exitY=0.5;exitDx=0;exitDy=0;" parent="1" source="46" target="32" edge="1">
                    <mxGeometry width="50" height="50" relative="1" as="geometry">
                        <mxPoint x="1160" y="660" as="sourcePoint"/>
                        <mxPoint x="1210" y="610" as="targetPoint"/>
                    </mxGeometry>
                </mxCell>
                <mxCell id="51" value="" style="group;fontColor=#030303;" parent="1" vertex="1" connectable="0">
                    <mxGeometry x="1120" y="440" width="160" height="110" as="geometry"/>
                </mxCell>
                <mxCell id="46" value="IP: &lt;br&gt;src: 192.168.70.134&lt;br&gt;dst: 8.8.8.8" style="rounded=0;whiteSpace=wrap;html=1;labelBackgroundColor=none;fontColor=#030303;container=0;" parent="51" vertex="1">
                    <mxGeometry y="30" width="160" height="50" as="geometry"/>
                </mxCell>
                <mxCell id="47" value="ICMP" style="rounded=0;whiteSpace=wrap;html=1;labelBackgroundColor=none;fontColor=#030303;container=0;" parent="51" vertex="1">
                    <mxGeometry width="160" height="30" as="geometry"/>
                </mxCell>
                <mxCell id="50" value="Ethernet" style="rounded=0;whiteSpace=wrap;html=1;labelBackgroundColor=none;fontColor=#030303;container=0;" parent="51" vertex="1">
                    <mxGeometry y="80" width="160" height="30" as="geometry"/>
                </mxCell>
                <mxCell id="52" value="" style="group;fontColor=#030303;" parent="1" vertex="1" connectable="0">
                    <mxGeometry x="1400" y="440" width="160" height="110" as="geometry"/>
                </mxCell>
                <mxCell id="53" value="IP: &lt;br&gt;src: 192.168.70.134&lt;br&gt;dst: 8.8.8.8" style="rounded=0;whiteSpace=wrap;html=1;labelBackgroundColor=none;fontColor=#030303;container=0;" parent="52" vertex="1">
                    <mxGeometry y="30" width="160" height="50" as="geometry"/>
                </mxCell>
                <mxCell id="54" value="ICMP" style="rounded=0;whiteSpace=wrap;html=1;labelBackgroundColor=none;fontColor=#030303;container=0;" parent="52" vertex="1">
                    <mxGeometry width="160" height="30" as="geometry"/>
                </mxCell>
                <mxCell id="55" value="Ethernet" style="rounded=0;whiteSpace=wrap;html=1;labelBackgroundColor=none;fontColor=#030303;container=0;" parent="52" vertex="1">
                    <mxGeometry y="80" width="160" height="30" as="geometry"/>
                </mxCell>
                <mxCell id="56" value="" style="endArrow=none;html=1;fontColor=#030303;entryX=1;entryY=0.5;entryDx=0;entryDy=0;exitX=0;exitY=0.5;exitDx=0;exitDy=0;" parent="1" source="54" target="47" edge="1">
                    <mxGeometry width="50" height="50" relative="1" as="geometry">
                        <mxPoint x="1330" y="670" as="sourcePoint"/>
                        <mxPoint x="1380" y="620" as="targetPoint"/>
                    </mxGeometry>
                </mxCell>
                <mxCell id="57" value="" style="endArrow=none;html=1;fontColor=#030303;entryX=1;entryY=0.5;entryDx=0;entryDy=0;exitX=0;exitY=0.5;exitDx=0;exitDy=0;" parent="1" source="53" target="46" edge="1">
                    <mxGeometry width="50" height="50" relative="1" as="geometry">
                        <mxPoint x="1250" y="690" as="sourcePoint"/>
                        <mxPoint x="1300" y="640" as="targetPoint"/>
                    </mxGeometry>
                </mxCell>
                <UserObject label="gNodeB-UPF-ICMP-cloud.pcapng" link="../pcap/gNodeB-UPF-ICMP-cloud.pcapng" id="62">
                    <mxCell style="text;whiteSpace=wrap;html=1;fontColor=#030303;" parent="1" vertex="1">
                        <mxGeometry x="40" y="600" width="210" height="40" as="geometry"/>
                    </mxCell>
                </UserObject>
                <UserObject label="gNodeB-UPF-ICMP.pcapng" link="../pcap/gNodeB-UPF-ICMP.pcapng" id="64">
                    <mxCell style="text;whiteSpace=wrap;html=1;fontColor=#030303;" parent="1" vertex="1">
                        <mxGeometry x="40" y="560" width="180" height="40" as="geometry"/>
                    </mxCell>
                </UserObject>
            </root>
        </mxGraphModel>
    </diagram>
</mxfile>